<?xml version="1.0" encoding="utf-8"?>
<!-- Generator: Adobe Illustrator 25.0.1, SVG Export Plug-In . SVG Version: 6.00 Build 0)  -->
<svg version="1.1" id="Layer_1" xmlns="http://www.w3.org/2000/svg" xmlns:xlink="http://www.w3.org/1999/xlink" x="0px" y="0px"
	 viewBox="0 0 640 640" style="enable-background:new 0 0 640 640;" xml:space="preserve">
<style type="text/css">
	.st0{clip-path:url(#SVGID_2_);}
	.st1{clip-path:url(#SVGID_4_);fill:#231F20;}
	.st2{clip-path:url(#SVGID_6_);fill:#231F20;}
	.st3{clip-path:url(#SVGID_8_);fill:url(#XMLID_3_);}
	.st4{clip-path:url(#SVGID_10_);fill:#4A659B;}
	.st5{clip-path:url(#SVGID_12_);fill:url(#XMLID_4_);}
	.st6{clip-path:url(#SVGID_14_);}
	.st7{clip-path:url(#SVGID_16_);fill:#617CBE;}
	.st8{clip-path:url(#SVGID_18_);fill:#FFFFFF;}
	.st9{clip-path:url(#SVGID_20_);fill:#FFFFFF;}
	.st10{clip-path:url(#SVGID_22_);fill:#08090D;}
	.st11{clip-path:url(#SVGID_24_);fill:#08090D;}
	.st12{clip-path:url(#SVGID_26_);fill:#08090D;}
</style>
<g id="XMLID_1_">
	<g id="XMLID_7_">
		<g>
			<defs>
				<path id="SVGID_1_" d="M320,460.7c147.7,0,267.5-63,267.5-140.7S467.7,179.3,320,179.3S52.5,242.4,52.5,320
					S172.3,460.7,320,460.7"/>
			</defs>
			<clipPath id="SVGID_2_">
				<use xlink:href="#SVGID_1_"  style="overflow:visible;"/>
			</clipPath>
			<g id="XMLID_8_" class="st0">
				<g>
					<defs>
						<rect id="SVGID_3_" x="52.1" y="180.2" width="536" height="281.1"/>
					</defs>
					<clipPath id="SVGID_4_">
						<use xlink:href="#SVGID_3_"  style="overflow:visible;"/>
					</clipPath>
					<path id="XMLID_14_" class="st1" d="M320,460.7c147.7,0,267.5-63,267.5-140.7S467.7,179.3,320,179.3S52.5,242.4,52.5,320
						S172.3,460.7,320,460.7"/>
				</g>
				<g>
					<defs>
						<rect id="SVGID_5_" x="52.1" y="180.2" width="536" height="281.1"/>
					</defs>
					<clipPath id="SVGID_6_">
						<use xlink:href="#SVGID_5_"  style="overflow:visible;"/>
					</clipPath>
					<path id="XMLID_10_" class="st2" d="M504.2,425.1C395.8,585.9,177.4,628.4,16.6,520S-186.7,193.1-78.2,32.3
						s327-203.1,487.8-94.8C570.2,46,612.7,264.4,504.2,425.1"/>
				</g>
				<g>
					<defs>
						<rect id="SVGID_7_" x="52.1" y="180.2" width="536" height="281.1"/>
					</defs>
					<clipPath id="SVGID_8_">
						<use xlink:href="#SVGID_7_"  style="overflow:visible;"/>
					</clipPath>
					
						<radialGradient id="XMLID_3_" cx="-99.8557" cy="617.6376" r="1.7832" gradientTransform="matrix(163.3026 110.1345 110.1345 -163.3026 -51503.3984 112088.1875)" gradientUnits="userSpaceOnUse">
						<stop  offset="0" style="stop-color:#4A659B"/>
						<stop  offset="1" style="stop-color:#231F20"/>
					</radialGradient>
					<rect id="XMLID_11_" x="52.1" y="180.2" class="st3" width="536" height="281.1"/>
				</g>
				<g>
					<defs>
						<rect id="SVGID_9_" x="52.1" y="180.2" width="536" height="281.1"/>
					</defs>
					<clipPath id="SVGID_10_">
						<use xlink:href="#SVGID_9_"  style="overflow:visible;"/>
					</clipPath>
					<path id="XMLID_12_" class="st4" d="M358.7,327.1c-54.2,80.3-163.4,101.6-243.7,47.3S13.4,211,67.6,130.7S231,29.1,311.4,83.3
						C391.7,137.4,412.9,246.6,358.7,327.1"/>
				</g>
				<g>
					<defs>
						<rect id="SVGID_11_" x="52.1" y="180.2" width="536" height="281.1"/>
					</defs>
					<clipPath id="SVGID_12_">
						<use xlink:href="#SVGID_11_"  style="overflow:visible;"/>
					</clipPath>
					
						<radialGradient id="XMLID_4_" cx="-99.714" cy="617.9926" r="1.7832" gradientTransform="matrix(81.6513 55.0672 55.0672 -81.6513 -25676.2246 56179.6836)" gradientUnits="userSpaceOnUse">
						<stop  offset="0" style="stop-color:#FFFFFF"/>
						<stop  offset="1" style="stop-color:#4A659B"/>
					</radialGradient>
					<rect id="XMLID_13_" x="52.1" y="180.2" class="st5" width="536" height="281.1"/>
				</g>
			</g>
		</g>
		<g>
			<defs>
				<path id="SVGID_13_" d="M320,460.7c147.7,0,267.5-63,267.5-140.7S467.7,179.3,320,179.3S52.5,242.4,52.5,320
					S172.3,460.7,320,460.7"/>
			</defs>
			<clipPath id="SVGID_14_">
				<use xlink:href="#SVGID_13_"  style="overflow:visible;"/>
			</clipPath>
			<g id="XMLID_15_" class="st6">
				<g>
					<defs>
						<rect id="SVGID_15_" x="52.1" y="180.2" width="536" height="281.1"/>
					</defs>
					<clipPath id="SVGID_16_">
						<use xlink:href="#SVGID_15_"  style="overflow:visible;"/>
					</clipPath>
					<path id="XMLID_16_" class="st7" d="M320,450.3c142,0,257.1-58.3,257.1-130.3S462,189.8,320,189.8S62.9,248.1,62.9,320
						S178,450.3,320,450.3"/>
				</g>
				<g>
					<defs>
						<rect id="SVGID_17_" x="52.1" y="180.2" width="536" height="281.1"/>
					</defs>
					<clipPath id="SVGID_18_">
						<use xlink:href="#SVGID_17_"  style="overflow:visible;"/>
					</clipPath>
					<path id="XMLID_19_" class="st8" d="M372,362.1l12.8-65.7c2.9-14.8,0.4-25.8-7.2-32.8c-7.3-6.7-19.8-10-38.1-10h-22.1l6.3-32.5
						c0.3-1.2-0.1-2.5-0.9-3.5c-0.7-1-1.9-1.5-3.2-1.5h-30.3c-2.1,0-3.7,1.5-4.1,3.4l-13.5,69.6c-1.2-7.8-4.3-14.5-9.1-20.1
						c-8.9-10.3-23-15.4-42.1-15.4h-59.1c-2.1,0-3.7,1.5-4.1,3.4l-27.4,141c-0.3,1.2,0.1,2.5,0.9,3.5c0.7,1,1.9,1.5,3.2,1.5h30.8
						c2.1,0,3.7-1.5,4.1-3.4l6.6-34.1h22.9c12,0,22.1-1.3,29.9-3.8c8.1-2.6,15.4-7,22-13.2c5.3-4.8,9.7-10.3,13-16.1l-5.4,28.1
						c-0.3,1.2,0.1,2.5,0.9,3.5c0.7,1,1.9,1.5,3.2,1.5h30.5c2.1,0,3.7-1.5,4.1-3.4l15.1-77.4h21c8.9,0,11.6,1.8,12.2,2.5
						c0.6,0.7,2.1,3.1,0.4,10.8L333,360.5c-0.3,1.2,0.1,2.5,0.9,3.5c0.7,1,1.9,1.5,3.2,1.5h30.9C370,365.5,371.7,364.2,372,362.1z
						 M230.7,307.9c-1.9,9.8-5.6,16.9-10.7,20.8c-5.3,4.1-13.8,6.2-25.1,6.2h-13.6l9.8-50.7h17.6c12.9,0,18.2,2.8,20.2,5.1
						C231.9,292.5,232.5,298.9,230.7,307.9"/>
				</g>
				<g>
					<defs>
						<rect id="SVGID_19_" x="52.1" y="180.2" width="536" height="281.1"/>
					</defs>
					<clipPath id="SVGID_20_">
						<use xlink:href="#SVGID_19_"  style="overflow:visible;"/>
					</clipPath>
					<path id="XMLID_22_" class="st9" d="M502.3,269c-8.9-10.3-23-15.4-42.1-15.4h-59.1c-2.1,0-3.7,1.5-4.1,3.4l-27.3,141
						c-0.3,1.2,0.1,2.5,0.9,3.5c0.7,1,1.9,1.5,3.2,1.5h30.8c2.1,0,3.7-1.5,4.1-3.4l6.4-34.1h22.9c12,0,22.1-1.3,29.9-3.8
						c8.1-2.6,15.4-7,22-13.2c5.4-5,10-10.6,13.3-16.7c3.4-6,5.9-12.9,7.2-20.1C514.2,293.7,511.4,279.4,502.3,269z M470.5,307.9
						c-1.9,9.8-5.6,16.9-10.7,20.8c-5.3,4.1-13.8,6.2-25.1,6.2h-13.6l9.8-50.7h17.6c12.9,0,18.2,2.8,20.2,5.1
						C471.7,292.5,472.3,298.9,470.5,307.9"/>
				</g>
				<g>
					<defs>
						<rect id="SVGID_21_" x="52.1" y="180.2" width="536" height="281.1"/>
					</defs>
					<clipPath id="SVGID_22_">
						<use xlink:href="#SVGID_21_"  style="overflow:visible;"/>
					</clipPath>
					<path id="XMLID_25_" class="st10" d="M208.8,280c11.7,0,19.5,2.2,23.3,6.4c4,4.3,4.8,11.7,2.8,22.1
						c-2.1,10.8-6.2,18.8-12.3,23.3c-6,4.7-15.2,7-27.7,7h-18.6l11.4-59.1h21.1V280z M133.9,398.9h30.8l7.3-37.5h26.4
						c11.6,0,21.1-1.2,28.7-3.7c7.5-2.5,14.4-6.6,20.4-12.3c5.1-4.7,9.4-10,12.5-15.7c3.2-5.7,5.4-12,6.7-18.9
						c3.2-16.7,0.7-29.8-7.3-39.1c-8.2-9.4-21.1-13.9-38.8-13.9h-59.1L133.9,398.9"/>
				</g>
				<g>
					<defs>
						<rect id="SVGID_23_" x="52.1" y="180.2" width="536" height="281.1"/>
					</defs>
					<clipPath id="SVGID_24_">
						<use xlink:href="#SVGID_23_"  style="overflow:visible;"/>
					</clipPath>
					<path id="XMLID_26_" class="st11" d="M289.2,220.4h30.5l-7.3,37.5h27.1c17.1,0,28.9,2.9,35.3,8.9c6.4,6,8.5,15.7,5.9,29
						l-12.8,65.7H337l12.2-62.4c1.3-7,0.9-11.9-1.5-14.5c-2.3-2.6-7.5-3.8-15.2-3.8h-24.3l-15.7,80.8H262L289.2,220.4"/>
				</g>
				<g>
					<defs>
						<rect id="SVGID_25_" x="52.1" y="180.2" width="536" height="281.1"/>
					</defs>
					<clipPath id="SVGID_26_">
						<use xlink:href="#SVGID_25_"  style="overflow:visible;"/>
					</clipPath>
					<path id="XMLID_29_" class="st12" d="M448.5,280c11.7,0,19.5,2.2,23.3,6.4c4,4.3,4.8,11.7,2.8,22.1
						c-2.1,10.8-6.2,18.8-12.3,23.3c-6,4.7-15.2,7-27.7,7H416l11.4-59.1h21.1V280z M373.6,398.9h30.8l7.3-37.5h26.4
						c11.6,0,21.1-1.2,28.7-3.7c7.5-2.5,14.4-6.6,20.4-12.3c5.1-4.7,9.4-10,12.5-15.7c3.2-5.7,5.4-12,6.7-18.9
						c3.2-16.7,0.7-29.8-7.3-39.1c-8.2-9.4-21.1-13.9-38.8-13.9h-59.1L373.6,398.9"/>
				</g>
			</g>
		</g>
	</g>
</g>
</svg>
